<?xml version="1.0" standalone="no"?>
<!DOCTYPE svg PUBLIC "-//W3C//DTD SVG 20010904//EN"
 "http://www.w3.org/TR/2001/REC-SVG-20010904/DTD/svg10.dtd">
<svg version="1.0" xmlns="http://www.w3.org/2000/svg"
 width="559.000000pt" height="447.000000pt" viewBox="0 0 559.000000 447.000000"
 preserveAspectRatio="xMidYMid meet">

<g transform="translate(0.000000,447.000000) scale(0.100000,-0.100000)"
fill="#000000" stroke="none">
<path d="M2642 4009 c-209 -17 -439 -82 -637 -179 -341 -167 -632 -456 -800
-795 -99 -201 -162 -412 -180 -610 -3 -38 -8 -91 -11 -117 l-6 -48 -171 -2
c-164 -3 -172 -4 -172 -23 0 -19 8 -20 172 -23 l171 -2 6 -48 c3 -26 8 -78 11
-117 43 -467 306 -936 690 -1225 452 -340 1004 -447 1558 -300 481 127 921
499 1134 958 83 180 142 391 158 567 3 39 8 91 11 118 l6 47 168 0 c93 0 171
4 174 9 4 5 3 16 0 25 -5 14 -30 16 -174 16 l-169 0 -5 43 c-3 23 -8 76 -11
117 -26 305 -152 627 -350 888 -307 406 -765 657 -1280 701 -133 12 -145 12
-293 0z m323 -44 c185 -14 403 -75 594 -167 547 -264 933 -833 968 -1425 l6
-113 -314 0 -315 0 -11 98 c-31 255 -137 477 -316 656 -296 298 -718 399
-1129 270 -322 -102 -595 -373 -701 -699 -28 -84 -57 -234 -57 -291 l0 -34
-315 0 -315 0 0 73 c0 198 76 481 188 703 83 164 247 374 394 502 290 254 647
405 1023 431 108 8 139 8 300 -4z m6 -660 c401 -70 729 -351 853 -730 28 -85
56 -226 56 -281 l0 -34 -53 0 -53 0 -13 93 c-16 121 -70 280 -129 380 -55 93
-180 230 -266 292 -449 320 -1071 207 -1381 -250 -81 -119 -136 -268 -156
-425 l-12 -90 -53 0 -54 0 0 41 c0 64 38 234 72 323 158 413 559 691 1004 695
56 1 139 -6 185 -14z m7 -131 c262 -54 484 -206 628 -431 72 -113 130 -281
141 -410 l6 -73 -286 0 -287 0 -31 43 c-125 173 -230 247 -348 247 -115 0
-204 -59 -337 -222 l-56 -68 -284 0 -284 0 0 39 c0 109 61 306 129 420 141
236 366 396 642 456 89 19 273 19 367 -1z m-1281 -1061 c31 -258 141 -484 319
-661 143 -141 308 -235 513 -290 85 -23 115 -26 266 -26 154 0 179 3 269 28
208 57 370 148 511 290 180 180 287 402 318 659 l11 97 313 0 313 0 0 -74 c0
-94 -34 -294 -70 -410 -197 -640 -751 -1116 -1410 -1212 -151 -22 -448 -15
-595 14 -610 118 -1115 568 -1315 1172 -44 132 -80 328 -80 436 l0 74 313 0
313 0 11 -97z m132 5 c13 -103 66 -274 108 -346 200 -350 574 -547 957 -504
457 51 809 396 867 852 l12 90 53 0 54 0 0 -34 c0 -55 -28 -196 -56 -280 -54
-166 -130 -291 -252 -415 -135 -137 -263 -218 -435 -275 -396 -132 -850 -18
-1133 286 -160 172 -272 419 -291 646 l-6 72 55 0 55 0 12 -92z m536 75 c-62
-144 -69 -217 -31 -298 59 -126 180 -167 319 -109 86 36 171 38 252 4 46 -19
78 -25 137 -25 69 0 80 3 120 30 58 41 97 103 110 172 9 53 8 65 -16 133 -15
41 -29 83 -33 93 -5 16 12 17 262 17 l268 0 -6 -73 c-29 -335 -277 -667 -590
-788 -150 -57 -188 -64 -367 -63 -150 0 -173 3 -255 28 -301 91 -533 305 -636
587 -33 91 -59 208 -59 270 l0 39 266 0 c250 0 266 -1 259 -17z"/>
<path d="M2542 2893 c-7 -3 -22 -23 -33 -46 -17 -33 -21 -53 -17 -106 8 -111
64 -191 134 -191 81 0 117 108 79 237 -25 84 -99 132 -163 106z"/>
<path d="M2998 2865 c-15 -9 -38 -38 -53 -70 -24 -48 -27 -64 -23 -129 4 -83
24 -123 71 -139 57 -19 129 51 149 143 30 145 -46 248 -144 195z"/>
<path d="M2245 2595 c-39 -38 -29 -109 25 -178 26 -33 89 -67 124 -67 29 0 66
42 66 76 0 60 -56 145 -114 174 -55 26 -72 25 -101 -5z"/>
<path d="M3241 2593 c-63 -31 -120 -138 -105 -198 4 -14 17 -33 30 -42 89 -58
245 121 193 220 -22 42 -60 48 -118 20z"/>
</g>
</svg>
